<svg xmlns="http://www.w3.org/2000/svg" viewBox="0 0 24 24" width="20" height="20" role="img" aria-label="Danbooru upload bounty">
  <title>Danbooru Upload Bounty</title>
  <path fill="#22c55e" d="M22.5 12c0-1.43-.88-2.67-2.19-3.34.46-1.39.2-2.9-.81-3.91s-2.52-1.27-3.91-.81C14.93 2.63 13.68 1.75 12.25 1.75s-2.67.88-3.34 2.19c-1.39-.46-2.9-.2-3.91.81s-1.27 2.52-.81 3.91C2.88 9.33 2 10.57 2 12s.88 2.67 2.19 3.34c-.46 1.39-.2 2.9.81 3.91s2.52 1.27 3.91.81C9.58 21.37 10.82 22.25 12.25 22.25s2.68-.88 3.34-2.19c1.39.46 2.9.2 3.91-.81s1.27-2.52.81-3.91C21.62 14.67 22.5 13.43 22.5 12z"/>
  <path fill="#ffffff" d="M10.8 16.6 6.9 12.7l1.6-1.6 2.3 2.3 5.1-5.6 1.7 1.5z"/>
</svg>
